<?xml version="1.0" encoding="UTF-8" standalone="no"?>
<!-- Created with Inkscape (http://www.inkscape.org/) -->

<svg
   xmlns:svg="http://www.w3.org/2000/svg"
   xmlns="http://www.w3.org/2000/svg"
   xmlns:xlink="http://www.w3.org/1999/xlink"
   version="1.1"
   width="25"
   height="17"
   id="svg2">
  <defs
     id="defs4">
    <linearGradient
       x1="1.3965347"
       y1="2.8009901"
       x2="7.6133666"
       y2="6.9455447"
       id="linearGradient4260"
       xlink:href="#linearGradient4254"
       gradientUnits="userSpaceOnUse" />
    <linearGradient
       x1="2.6579208"
       y1="2.260396"
       x2="6.6222773"
       y2="3.2934308"
       id="linearGradient4239"
       xlink:href="#linearGradient4233"
       gradientUnits="userSpaceOnUse" />
    <linearGradient
       x1="9.6405945"
       y1="1.4495049"
       x2="5.4509902"
       y2="9.19802"
       id="linearGradient4228"
       xlink:href="#linearGradient4222"
       gradientUnits="userSpaceOnUse" />
    <linearGradient
       id="linearGradient4222">
      <stop
         id="stop4224"
         style="stop-color:#a38300;stop-opacity:1"
         offset="0" />
      <stop
         id="stop4226"
         style="stop-color:#6c5600;stop-opacity:1"
         offset="1" />
    </linearGradient>
    <linearGradient
       id="linearGradient4233">
      <stop
         id="stop4235"
         style="stop-color:#32ac00;stop-opacity:1"
         offset="0" />
      <stop
         id="stop4237"
         style="stop-color:#116200;stop-opacity:1"
         offset="1" />
    </linearGradient>
    <linearGradient
       id="linearGradient4254">
      <stop
         id="stop4256"
         style="stop-color:#166500;stop-opacity:1"
         offset="0" />
      <stop
         id="stop4258"
         style="stop-color:#3a3000;stop-opacity:1"
         offset="1" />
    </linearGradient>
    <linearGradient
       id="linearGradient5442">
      <stop
         id="stop5444"
         style="stop-color:#3bb265;stop-opacity:1"
         offset="0" />
      <stop
         id="stop5446"
         style="stop-color:#246c32;stop-opacity:1"
         offset="1" />
    </linearGradient>
    <linearGradient
       id="linearGradient5450">
      <stop
         id="stop5452"
         style="stop-color:#62dd90;stop-opacity:1"
         offset="0" />
      <stop
         id="stop5454"
         style="stop-color:#041308;stop-opacity:1"
         offset="1" />
    </linearGradient>
    <linearGradient
       x1="-1.8334223"
       y1="6.6957436"
       x2="7.8287196"
       y2="16.000019"
       id="linearGradient3368"
       xlink:href="#linearGradient5450"
       gradientUnits="userSpaceOnUse" />
    <linearGradient
       x1="3.2851486"
       y1="11.444585"
       x2="7.125"
       y2="15"
       id="linearGradient3370"
       xlink:href="#linearGradient5442"
       gradientUnits="userSpaceOnUse" />
    <clipPath
       id="clipPath4146">
      <rect
         width="8"
         height="7"
         x="-0.0004619"
         y="9"
         id="rect4148"
         style="opacity:0.55979644;fill:#0060c0;fill-opacity:1;stroke:none" />
    </clipPath>
    <linearGradient
       x1="4"
       y1="1045.5497"
       x2="-6.0625"
       y2="1026.2684"
       id="linearGradient3693"
       xlink:href="#linearGradient3613"
       gradientUnits="userSpaceOnUse"
       gradientTransform="translate(2,2)" />
    <linearGradient
       x1="-5.095274"
       y1="1033.3518"
       x2="13.163674"
       y2="1058.4865"
       id="linearGradient3647"
       xlink:href="#linearGradient3639"
       gradientUnits="userSpaceOnUse"
       gradientTransform="translate(1.96875,2)" />
    <linearGradient
       x1="-5.095274"
       y1="1033.3518"
       x2="13.163674"
       y2="1058.4865"
       id="linearGradient3633"
       xlink:href="#linearGradient3639"
       gradientUnits="userSpaceOnUse"
       gradientTransform="translate(-0.03124999,0)" />
    <linearGradient
       x1="4"
       y1="1045.5497"
       x2="-6.0625"
       y2="1026.2684"
       id="linearGradient3619"
       xlink:href="#linearGradient3613"
       gradientUnits="userSpaceOnUse" />
    <linearGradient
       id="linearGradient3613">
      <stop
         id="stop3615"
         style="stop-color:#ffffff;stop-opacity:1"
         offset="0" />
      <stop
         id="stop3617"
         style="stop-color:#000000;stop-opacity:0.72944295"
         offset="1" />
    </linearGradient>
    <linearGradient
       id="linearGradient3639">
      <stop
         id="stop3641"
         style="stop-color:#000000;stop-opacity:1"
         offset="0" />
      <stop
         id="stop3643"
         style="stop-color:#ffffff;stop-opacity:1"
         offset="1" />
    </linearGradient>
  </defs>
  <g
     transform="translate(0,-1035.3622)"
     id="layer1">
    <image
       xlink:href="../nuvola/16x16/folder_yellow.png"
       x="1"
       y="1036.3622"
       width="16"
       height="16"
       id="image2998" />
    <g
       transform="translate(14,-2)"
       id="layer1-3">
      <rect
         width="7"
         height="10"
         x="2.5"
         y="1041.8622"
         id="rect3691"
         style="fill:url(#linearGradient3693);fill-opacity:1;stroke:none" />
      <path
         d="m 2,1041.3622 0,0.5 0,10 0,0.5 0.5,0 7,0 0.5,0 0,-0.5 0,-10 0,-0.5 -0.5,0 -7,0 -0.5,0 z m 1,1 6,0 0,9 -6,0 0,-9 z"
         id="path3645"
         style="font-size:medium;font-style:normal;font-variant:normal;font-weight:normal;font-stretch:normal;text-indent:0;text-align:start;text-decoration:none;line-height:normal;letter-spacing:normal;word-spacing:normal;text-transform:none;direction:ltr;block-progression:tb;writing-mode:lr-tb;text-anchor:start;color:#000000;fill:url(#linearGradient3647);fill-opacity:1;stroke:none;stroke-width:1;marker:none;visibility:visible;display:inline;overflow:visible;enable-background:accumulate;font-family:Bitstream Vera Sans;-inkscape-font-specification:Bitstream Vera Sans" />
      <rect
         width="7"
         height="10"
         x="0.5"
         y="1039.8622"
         id="rect2830"
         style="fill:url(#linearGradient3619);fill-opacity:1;stroke:none" />
      <g
         transform="matrix(0.95890403,0,0,1.0370725,0.10376718,1039.1783)"
         id="text3606"
         style="font-size:40px;font-style:normal;font-weight:normal;fill:#000000;fill-opacity:1;stroke:none;font-family:Bitstream Vera Sans">
        <path
           d="m 5.1060718,5.9628425 0,-0.9642527 -1.0428572,0 C 4.0306249,3.7121191 4.083755,3.053575 4.7443307,3.0573877 5.1497912,3.0597279 4.9463843,3.3728736 5.1060718,4.034337 l 1.0428572,0 C 6.018572,3.997887 6.5367413,2.1133648 4.8909824,2.1058316 4.4999161,2.1040415 3.9247097,2.1079872 3.4880137,2.5817867 3.123014,2.9754047 3.1686383,3.7283135 3.0203573,4.9985898 l -1.0428572,0 0,0.9642527 1.0428572,0 C 2.9557912,7.3713527 2.9381392,7.5511525 2.6260642,7.7473342 2.4279358,7.871885 2.1534821,7.920488 1.9775001,7.891348 l 0,0.9642527 c 0.1433927,0.021865 0.2150895,-1.04e-5 0.3193751,-1.04e-5 C 2.8110412,8.8432983 3.2847948,8.6547561 3.5358927,8.3834973 4.040844,7.8380029 4.0632146,5.9628425 4.0632146,5.9628425"
           id="path3611"
           style="font-style:italic;font-variant:normal;font-weight:bold;font-stretch:normal;fill:#ff0000;font-family:URW Chancery L;-inkscape-font-specification:URW Chancery L Bold Italic" />
      </g>
      <path
         d="m 0,1039.3622 0,0.5 0,10 0,0.5 0.5,0 7,0 0.5,0 0,-0.5 0,-10 0,-0.5 -0.5,0 -7,0 -0.5,0 z m 1,1 6,0 0,9 -6,0 0,-9 z"
         id="rect3621"
         style="font-size:medium;font-style:normal;font-variant:normal;font-weight:normal;font-stretch:normal;text-indent:0;text-align:start;text-decoration:none;line-height:normal;letter-spacing:normal;word-spacing:normal;text-transform:none;direction:ltr;block-progression:tb;writing-mode:lr-tb;text-anchor:start;color:#000000;fill:url(#linearGradient3633);fill-opacity:1;stroke:none;stroke-width:1;marker:none;visibility:visible;display:inline;overflow:visible;enable-background:accumulate;font-family:Bitstream Vera Sans;-inkscape-font-specification:Bitstream Vera Sans" />
    </g>
  </g>
</svg>
