<?xml version="1.0" encoding="UTF-8" standalone="no"?>
<!-- Created with Inkscape (http://www.inkscape.org/) -->

<svg
   xmlns:svg="http://www.w3.org/2000/svg"
   xmlns="http://www.w3.org/2000/svg"
   xmlns:xlink="http://www.w3.org/1999/xlink"
   version="1.1"
   width="25"
   height="17"
   id="svg2">
  <defs
     id="defs4">
    <linearGradient
       x1="1.3965347"
       y1="2.8009901"
       x2="7.6133666"
       y2="6.9455447"
       id="linearGradient4260"
       xlink:href="#linearGradient4254"
       gradientUnits="userSpaceOnUse" />
    <linearGradient
       x1="2.6579208"
       y1="2.260396"
       x2="6.6222773"
       y2="3.2934308"
       id="linearGradient4239"
       xlink:href="#linearGradient4233"
       gradientUnits="userSpaceOnUse" />
    <linearGradient
       x1="9.6405945"
       y1="1.4495049"
       x2="5.4509902"
       y2="9.19802"
       id="linearGradient4228"
       xlink:href="#linearGradient4222"
       gradientUnits="userSpaceOnUse" />
    <linearGradient
       id="linearGradient4222">
      <stop
         id="stop4224"
         style="stop-color:#a38300;stop-opacity:1"
         offset="0" />
      <stop
         id="stop4226"
         style="stop-color:#6c5600;stop-opacity:1"
         offset="1" />
    </linearGradient>
    <linearGradient
       id="linearGradient4233">
      <stop
         id="stop4235"
         style="stop-color:#32ac00;stop-opacity:1"
         offset="0" />
      <stop
         id="stop4237"
         style="stop-color:#116200;stop-opacity:1"
         offset="1" />
    </linearGradient>
    <linearGradient
       id="linearGradient4254">
      <stop
         id="stop4256"
         style="stop-color:#166500;stop-opacity:1"
         offset="0" />
      <stop
         id="stop4258"
         style="stop-color:#3a3000;stop-opacity:1"
         offset="1" />
    </linearGradient>
    <linearGradient
       x1="8.5"
       y1="11.630198"
       x2="2.567822"
       y2="0.54801965"
       id="linearGradient4886-0"
       xlink:href="#linearGradient4880-9"
       gradientUnits="userSpaceOnUse" />
    <linearGradient
       x1="6.8984327"
       y1="7.0056653"
       x2="-0.66759026"
       y2="0.26749697"
       id="linearGradient4878-7"
       xlink:href="#linearGradient4872-0"
       gradientUnits="userSpaceOnUse" />
    <linearGradient
       id="linearGradient4872-0">
      <stop
         id="stop4874-0"
         style="stop-color:#f71000;stop-opacity:1"
         offset="0" />
      <stop
         id="stop4876-2"
         style="stop-color:#f71000;stop-opacity:0.4427481"
         offset="1" />
    </linearGradient>
    <linearGradient
       id="linearGradient4880-9">
      <stop
         id="stop4882-0"
         style="stop-color:#7d201b;stop-opacity:1"
         offset="0" />
      <stop
         id="stop4884-8"
         style="stop-color:#bd3129;stop-opacity:0.22900763"
         offset="1" />
    </linearGradient>
    <linearGradient
       x1="13"
       y1="13"
       x2="0"
       y2="0"
       id="linearGradient3598"
       xlink:href="#linearGradient3592"
       gradientUnits="userSpaceOnUse" />
    <linearGradient
       id="linearGradient3592">
      <stop
         id="stop3594"
         style="stop-color:#008000;stop-opacity:1"
         offset="0" />
      <stop
         id="stop3596"
         style="stop-color:#ffffff;stop-opacity:1"
         offset="1" />
    </linearGradient>
  </defs>
  <g
     transform="translate(0,-1035.3622)"
     id="layer1">
    <image
       xlink:href="../nuvola/16x16/folder_yellow_open.png"
       x="1"
       y="1036.3622"
       width="16"
       height="16"
       id="image2998" />
    <g
       transform="translate(11,-1.99995)"
       id="layer1-5">
      <path
         d="m 15,7.5 a 7.5,7.5 0 1 1 -15,0 7.5,7.5 0 1 1 15,0 z"
         transform="matrix(0.8125,0,0,0.8125,0.40624999,1039.7684)"
         id="path2818"
         style="fill:url(#linearGradient3598);fill-opacity:1;stroke:#006a00;stroke-opacity:1" />
      <g
         transform="matrix(1.0062656,0,0,0.96251684,-0.04659213,39.20481)"
         id="text3600"
         style="font-size:9.615345px;font-style:normal;font-weight:normal;fill:#ffffff;fill-opacity:1;stroke:none;font-family:Bitstream Vera Sans">
        <path
           d="m 8.9902632,1048.9746 c -0.3317856,0.1722 -0.6776497,0.3021 -1.0375934,0.3897 -0.3599545,0.088 -0.7355535,0.1315 -1.1267982,0.1315 -1.1674913,0 -2.092404,-0.3255 -2.7747407,-0.9766 -0.6823398,-0.6542 -1.0235089,-1.5399 -1.0235084,-2.6574 -5e-7,-1.1205 0.3411686,-2.0063 1.0235084,-2.6573 0.6823367,-0.6542 1.6072494,-0.9813 2.7747407,-0.9813 0.3912447,0 0.7668437,0.044 1.1267982,0.1315 0.3599437,0.088 0.7058078,0.2175 1.0375934,0.3897 l 0,1.4507 c -0.3349156,-0.2285 -0.6651298,-0.3959 -0.9906435,-0.5023 -0.3255246,-0.1065 -0.6682587,-0.1597 -1.0282034,-0.1597 -0.6447827,0 -1.1518414,0.2066 -1.5211776,0.6198 -0.3693419,0.4131 -0.5540115,0.9828 -0.5540091,1.7089 -2.4e-6,0.7231 0.1846672,1.2912 0.5540091,1.7043 0.3693362,0.4132 0.8763949,0.6198 1.5211776,0.6198 0.3599447,0 0.7026788,-0.053 1.0282034,-0.1597 0.3255137,-0.1064 0.6557279,-0.2738 0.9906435,-0.5023 l 0,1.4507"
           id="path3661"
           style="font-weight:bold;fill:#ffffff" />
      </g>
    </g>
  </g>
</svg>
