<?xml version="1.0" encoding="UTF-8" standalone="no"?>
<svg
   xmlns:dc="http://purl.org/dc/elements/1.1/"
   xmlns:cc="http://creativecommons.org/ns#"
   xmlns:rdf="http://www.w3.org/1999/02/22-rdf-syntax-ns#"
   xmlns:svg="http://www.w3.org/2000/svg"
   xmlns="http://www.w3.org/2000/svg"
   width="16px"
   height="16px"
   viewBox="0 0 16 16"
   version="1.1"
   id="SVGRoot">
  <defs
     id="defs5287" />
  <metadata
     id="metadata5290">
    <rdf:RDF>
      <cc:Work
         rdf:about="">
        <dc:format>image/svg+xml</dc:format>
        <dc:type
           rdf:resource="http://purl.org/dc/dcmitype/StillImage" />
        <dc:title></dc:title>
      </cc:Work>
    </rdf:RDF>
  </metadata>
  <g
     id="g858">
    <path
       style="fill:#ffffff;fill-opacity:1;stroke:none;stroke-width:1.04581916;stroke-miterlimit:4;stroke-dasharray:none;stroke-opacity:1"
       d="M 10 0 A 6 6 0 0 0 5.6054688 1.9257812 L 3.6152344 0.36914062 L 3.3066406 0.76171875 C 2.1360722 2.2566877 1.5005523 4.1012735 1.5 6 C 1.5 10.688498 5.3115019 14.5 10 14.5 C 11.915968 14.4972 13.775267 13.846173 15.275391 12.654297 L 15.666016 12.34375 L 14.103516 10.371094 A 6 6 0 0 0 16 6 A 6 6 0 0 0 10 0 z "
       id="path833" />
    <path
       style="opacity:1;fill:#d4aa00;fill-opacity:1;stroke:none;stroke-width:1;stroke-miterlimit:4;stroke-dasharray:none;stroke-opacity:1"
       d="M 3.7011719,1.0703125 A 8,8 0 0 0 2,6 a 8,8 0 0 0 8,8 8,8 0 0 0 4.964844,-1.736328 l -1.238282,-1.5625 A 6,6 0 0 1 10,12 6,6 0 0 1 4,6 6,6 0 0 1 5.2792969,2.3066406 Z"
       id="path5895" />
    <path
       style="opacity:1;fill:#666666;fill-opacity:1;stroke:none;stroke-width:1.14285719;stroke-miterlimit:4;stroke-dasharray:none;stroke-opacity:1"
       d="M 9.0000781,1 V 2.1308594 A 4,4 0 0 0 7.1485156,3.1992188 L 6.17,2.6347656 5.17,4.3652344 6.1485156,4.9296875 A 4,4 0 0 0 6.0000781,6 4,4 0 0 0 6.1465625,7.0703125 L 5.17,7.6347656 6.17,9.365234 7.1465625,8.800781 A 4,4 0 0 0 9.0000781,9.867188 V 11 H 11.000078 V 9.869141 a 4,4 0 0 0 1.851562,-1.06836 l 0.978516,0.564453 1,-1.7304684 L 13.85164,7.0703125 A 4,4 0 0 0 14.000078,6 4,4 0 0 0 13.853594,4.9296875 l 0.976562,-0.5644531 -1,-1.7304688 -0.976562,0.5644532 A 4,4 0 0 0 11.000078,2.1328125 V 1 Z m 0.9999999,4 a 1,1 0 0 1 1,1 1,1 0 0 1 -1,1 A 1,1 0 0 1 9.0000781,6 1,1 0 0 1 10.000078,5 Z"
       id="path5852" />
    <path
       style="color:#000000;font-style:normal;font-variant:normal;font-weight:normal;font-stretch:normal;font-size:medium;line-height:normal;font-family:sans-serif;font-variant-ligatures:normal;font-variant-position:normal;font-variant-caps:normal;font-variant-numeric:normal;font-variant-alternates:normal;font-feature-settings:normal;text-indent:0;text-align:start;text-decoration:none;text-decoration-line:none;text-decoration-style:solid;text-decoration-color:#000000;letter-spacing:normal;word-spacing:normal;text-transform:none;writing-mode:lr-tb;direction:ltr;text-orientation:mixed;dominant-baseline:auto;baseline-shift:baseline;text-anchor:start;white-space:normal;shape-padding:0;clip-rule:nonzero;display:inline;overflow:visible;visibility:visible;opacity:1;isolation:auto;mix-blend-mode:normal;color-interpolation:sRGB;color-interpolation-filters:linearRGB;solid-color:#000000;solid-opacity:1;vector-effect:none;fill:#000000;fill-opacity:1;fill-rule:nonzero;stroke:none;stroke-width:1;stroke-linecap:butt;stroke-linejoin:miter;stroke-miterlimit:4;stroke-dasharray:none;stroke-dashoffset:0;stroke-opacity:1;color-rendering:auto;image-rendering:auto;shape-rendering:auto;text-rendering:auto;enable-background:accumulate"
       d="M 0.79296875,9.5 1.6464844,10.353516 2.5859375,11.292969 0.171875,13.707031 2.2929688,15.828125 4.7070312,13.414062 6.5,15.207031 V 9.5 Z"
       id="path836" />
    <path
       style="opacity:1;fill:#00c000;fill-opacity:1;stroke:none;stroke-width:1;stroke-miterlimit:4;stroke-dasharray:none;stroke-opacity:1"
       d="M 2,10 3.2929688,11.292969 0.87890625,13.707031 2.2929688,15.121094 4.7070312,12.707031 6,14 v -4 z"
       id="rect5901" />
  </g>
</svg>
