<?xml version="1.0" encoding="UTF-8" standalone="no"?>
<svg
   xmlns:dc="http://purl.org/dc/elements/1.1/"
   xmlns:cc="http://creativecommons.org/ns#"
   xmlns:rdf="http://www.w3.org/1999/02/22-rdf-syntax-ns#"
   xmlns:svg="http://www.w3.org/2000/svg"
   xmlns="http://www.w3.org/2000/svg"
   width="16px"
   height="16px"
   viewBox="0 0 16 16"
   version="1.1"
   id="SVGRoot">
  <defs
     id="defs5287" />
  <metadata
     id="metadata5290">
    <rdf:RDF>
      <cc:Work
         rdf:about="">
        <dc:format>image/svg+xml</dc:format>
        <dc:type
           rdf:resource="http://purl.org/dc/dcmitype/StillImage" />
        <dc:title></dc:title>
      </cc:Work>
    </rdf:RDF>
  </metadata>
  <path
     id="path822"
     d="m 11,6.5 c -2.4852814,0 -4.5,2.0147186 -4.5,4.5 0,2.485281 2.0147186,4.5 4.5,4.5 2.485281,0 4.5,-2.014719 4.5,-4.5 0,-2.4852814 -2.014719,-4.5 -4.5,-4.5 z"
     style="opacity:1;fill:#ffffff;fill-opacity:1;stroke:none;stroke-width:1.28571439;stroke-miterlimit:4;stroke-dasharray:none;stroke-opacity:1" />
  <path
     style="opacity:1;fill:#ffffff;fill-opacity:1;stroke:none;stroke-width:1.28571439;stroke-miterlimit:4;stroke-dasharray:none;stroke-opacity:1"
     d="M 5,0.5 C 2.5147186,0.5 0.5,2.5147186 0.5,5 0.5,7.4852814 2.5147186,9.5 5,9.5 7.4852814,9.5 9.5,7.4852814 9.5,5 9.5,2.5147186 7.4852814,0.5 5,0.5 Z"
     id="path819" />
  <circle
     r="4"
     cy="11.000002"
     cx="11"
     id="path821"
     style="opacity:1;fill:#0166a9;fill-opacity:1;stroke:none;stroke-width:1.14285719;stroke-miterlimit:4;stroke-dasharray:none;stroke-opacity:1" />
  <path
     id="path821-7"
     d="M 5,1 C 2.790861,1 1,2.790861 1,5 1,7.209139 2.790861,9 5,9 7.209139,9 9,7.209139 9,5 9,2.790861 7.209139,1 5,1 Z"
     style="opacity:1;fill:#7f7f7f;fill-opacity:1;stroke:none;stroke-width:1.14285719;stroke-miterlimit:4;stroke-dasharray:none;stroke-opacity:1" />
</svg>
