<?xml version="1.0" encoding="UTF-8" standalone="no"?>
<svg
   xmlns:dc="http://purl.org/dc/elements/1.1/"
   xmlns:cc="http://creativecommons.org/ns#"
   xmlns:rdf="http://www.w3.org/1999/02/22-rdf-syntax-ns#"
   xmlns:svg="http://www.w3.org/2000/svg"
   xmlns="http://www.w3.org/2000/svg"
   width="16px"
   height="16px"
   viewBox="0 0 16 16"
   version="1.1"
   id="SVGRoot">
  <defs
     id="defs5287" />
  <metadata
     id="metadata5290">
    <rdf:RDF>
      <cc:Work
         rdf:about="">
        <dc:format>image/svg+xml</dc:format>
        <dc:type
           rdf:resource="http://purl.org/dc/dcmitype/StillImage" />
        <dc:title></dc:title>
      </cc:Work>
    </rdf:RDF>
  </metadata>
  <g
     id="layer1">
    <g
       transform="translate(2,2)"
       id="layer1-7">
      <path
         id="path4003"
         transform="translate(-2,-2)"
         d="M 7 3 A 4 4 0 0 0 3 7 A 4 4 0 0 0 6.1054688 10.894531 A 4 4 0 0 0 10 14 A 4 4 0 0 0 14 10 A 4 4 0 0 0 10.892578 6.1074219 A 4 4 0 0 0 7 3 z M 10.822266 8.1796875 A 2 2 0 0 1 12 10 A 2 2 0 0 1 10 12 A 2 2 0 0 1 8.1777344 10.818359 A 4 4 0 0 0 10.822266 8.1796875 z "
         style="opacity:1;fill:#aa0000;fill-opacity:1;stroke:none;stroke-width:1.14285719;stroke-miterlimit:4;stroke-dasharray:none;stroke-opacity:1" />
    </g>
    <g
       transform="translate(-1,-0.99999809)"
       id="layer1-71" />
  </g>
</svg>
