<?xml version="1.0" encoding="UTF-8" standalone="no"?>
<svg
   xmlns:dc="http://purl.org/dc/elements/1.1/"
   xmlns:cc="http://creativecommons.org/ns#"
   xmlns:rdf="http://www.w3.org/1999/02/22-rdf-syntax-ns#"
   xmlns:svg="http://www.w3.org/2000/svg"
   xmlns="http://www.w3.org/2000/svg"
   width="16px"
   height="16px"
   viewBox="0 0 16 16"
   version="1.1"
   id="SVGRoot">
  <defs
     id="defs5287" />
  <metadata
     id="metadata5290">
    <rdf:RDF>
      <cc:Work
         rdf:about="">
        <dc:format>image/svg+xml</dc:format>
        <dc:type
           rdf:resource="http://purl.org/dc/dcmitype/StillImage" />
        <dc:title></dc:title>
      </cc:Work>
    </rdf:RDF>
  </metadata>
  <circle
     r="7.5"
     cy="8"
     cx="8"
     id="path818"
     style="fill:#ffffff;fill-opacity:1;stroke:none;stroke-width:1.48656309;stroke-miterlimit:4;stroke-dasharray:none;stroke-opacity:1" />
  <path
     id="path816"
     d="M 8,1 C 4.1340068,1 1,4.1340068 1,8 c 0,3.865993 3.1340068,7 7,7 3.865993,0 7,-3.134007 7,-7 C 15,4.1340068 11.865993,1 8,1 Z"
     style="fill:#0166a9;fill-opacity:1;stroke:none;stroke-width:2.11057949;stroke-miterlimit:4;stroke-dasharray:none;stroke-opacity:1" />
  <g
     id="g4588">
    <g
       id="g4631">
      <path
         style="fill:#000000;fill-opacity:1;stroke:none;stroke-width:1.50056732;stroke-miterlimit:4;stroke-dasharray:none;stroke-opacity:1"
         d="m 11.865234,0.4 -1.730468,1.0007567 0.634765,1.0984867 H 9.5 v 2.0015133 h 1.269531 L 10.134766,5.5992434 11.865234,6.6 12.5,5.4995587 13.134766,6.6 14.865234,5.5992434 14.230469,4.5007567 H 15.5 V 2.4992434 H 14.230469 L 14.865234,1.4007567 13.134766,0.4 12.5,1.5004413 Z"
         id="rect4552" />
      <path
         style="fill:#d4aa00;fill-opacity:1;stroke:none;stroke-width:1.52584839;stroke-miterlimit:4;stroke-dasharray:none;stroke-opacity:1"
         d="m 11.683594,1 -0.867188,0.5173808 0.816406,1.4652385 H 10 v 1.0347615 h 1.632812 L 10.816406,5.4826192 11.683594,6 12.5,4.5367825 13.316406,6 14.183594,5.4826192 13.367188,4.0173808 H 15 V 2.9826193 H 13.367188 L 14.183594,1.5173808 13.316406,1 12.5,2.4632175 Z"
         id="rect818" />
    </g>
  </g>
</svg>
