<?xml version="1.0" encoding="UTF-8" standalone="no"?>
<svg
   xmlns:dc="http://purl.org/dc/elements/1.1/"
   xmlns:cc="http://creativecommons.org/ns#"
   xmlns:rdf="http://www.w3.org/1999/02/22-rdf-syntax-ns#"
   xmlns:svg="http://www.w3.org/2000/svg"
   xmlns="http://www.w3.org/2000/svg"
   width="16"
   height="16"
   id="svg4819"
   version="1.1"
   viewBox="0 0 16 16">
  <defs
     id="defs4821" />
  <metadata
     id="metadata4824">
    <rdf:RDF>
      <cc:Work
         rdf:about="">
        <dc:format>image/svg+xml</dc:format>
        <dc:type
           rdf:resource="http://purl.org/dc/dcmitype/StillImage" />
        <dc:title></dc:title>
      </cc:Work>
    </rdf:RDF>
  </metadata>
  <path
     id="path1465"
     d="M 8,1.5 C 4.4160714,1.5 1.5,4.4160714 1.5,8 c 0.00175,1.1999382 0.3850235,2.351348 1.0097656,3.369141 l -2.21679685,2.216797 2.12109375,2.121093 2.21875,-2.21875 C 5.6498713,14.113396 6.7985466,14.497314 7.9980469,14.5 H 8 c 3.583929,0 6.5,-2.916071 6.5,-6.5 V 7.5 h -3 V 8 C 11.5,9.9389189 9.9389189,11.5 8,11.5 6.0610811,11.5 4.5,9.9389189 4.5,8 4.5,6.0610811 6.0610811,4.5 8,4.5 h 0.5 v -3 z"
     style="color:#000000;font-style:normal;font-variant:normal;font-weight:normal;font-stretch:normal;font-size:medium;line-height:normal;font-family:sans-serif;font-variant-ligatures:normal;font-variant-position:normal;font-variant-caps:normal;font-variant-numeric:normal;font-variant-alternates:normal;font-feature-settings:normal;text-indent:0;text-align:start;text-decoration:none;text-decoration-line:none;text-decoration-style:solid;text-decoration-color:#000000;letter-spacing:normal;word-spacing:normal;text-transform:none;writing-mode:lr-tb;direction:ltr;text-orientation:mixed;dominant-baseline:auto;baseline-shift:baseline;text-anchor:start;white-space:normal;shape-padding:0;clip-rule:nonzero;display:inline;overflow:visible;visibility:visible;opacity:1;isolation:auto;mix-blend-mode:normal;color-interpolation:sRGB;color-interpolation-filters:linearRGB;solid-color:#000000;solid-opacity:1;vector-effect:none;fill:#ffffff;fill-opacity:1;fill-rule:nonzero;stroke:none;stroke-width:1;stroke-linecap:butt;stroke-linejoin:miter;stroke-miterlimit:4;stroke-dasharray:none;stroke-dashoffset:0;stroke-opacity:1;color-rendering:auto;image-rendering:auto;shape-rendering:auto;text-rendering:auto;enable-background:accumulate" />
  <path
     id="circle842"
     d="m 8,2.0000001 a 6,6 0 0 0 -6,6 6,6 0 0 0 1.113282,3.4726559 L 1,13.585938 2.414063,15 4.529297,12.884766 A 6,6 0 0 0 8,14 6,6 0 0 0 14,8.0000001 H 12 A 4,4 0 0 1 8,12 4,4 0 0 1 4,8.0000001 a 4,4 0 0 1 4,-4 z"
     style="opacity:1;fill:#d4aa00;fill-opacity:1;stroke:none;stroke-width:1.99999976;stroke-miterlimit:4;stroke-dasharray:none;stroke-opacity:1" />
</svg>
