<?xml version="1.0" encoding="UTF-8" standalone="no"?>
<svg
   xmlns:dc="http://purl.org/dc/elements/1.1/"
   xmlns:cc="http://creativecommons.org/ns#"
   xmlns:rdf="http://www.w3.org/1999/02/22-rdf-syntax-ns#"
   xmlns:svg="http://www.w3.org/2000/svg"
   xmlns="http://www.w3.org/2000/svg"
   id="SVGRoot"
   version="1.1"
   viewBox="0 0 16 16"
   height="16px"
   width="16px">
  <defs
     id="defs5287" />
  <metadata
     id="metadata5290">
    <rdf:RDF>
      <cc:Work
         rdf:about="">
        <dc:format>image/svg+xml</dc:format>
        <dc:type
           rdf:resource="http://purl.org/dc/dcmitype/StillImage" />
        <dc:title />
      </cc:Work>
    </rdf:RDF>
  </metadata>
  <g
     id="layer1">
    <path
       id="path962"
       d="M 8.5,1 C 8.5,1.7247441 8.6289321,2.4173758 8.8496094,3.0683594 7.9558048,3.2126832 7.0370041,3.5974858 6.1914062,4.1816406 4.7716325,3.9227677 3.185712,4.1752882 2,4.6972656 V 5.8046875 C 2.9745225,5.2756988 4.0513397,5.0354513 5.1171875,5.0683594 5.1080541,5.0768011 5.0989394,5.0852647 5.0898438,5.09375 3.9613247,6.2260577 3.2205798,7.6417507 3.0449219,9.0019531 3.0299517,9.0012179 3.0149775,9.0005669 3,9 2.297388,9.0015552 1.6075807,9.1881535 1,9.5410156 V 10.769531 C 1.5491933,10.275544 2.2613297,10.001539 3,10 c 0.00586,-1.72e-5 0.011719,-1.72e-5 0.017578,0 v 0.002 L 4.2128906,11.197266 9,7 4.8027344,11.787109 6,12.982422 c 1.72e-5,0.0059 1.72e-5,0.01172 0,0.01758 -0.001,0.738413 -0.2743002,1.450517 -0.7675781,2 H 6.4589844 C 6.8118465,14.392417 6.9984448,13.702612 7,13 c -5.74e-4,-0.01433 -0.00123,-0.02865 -0.00195,-0.04297 1.3612806,-0.176463 2.7777334,-0.917943 3.9101561,-2.046875 0.0085,-0.0091 0.01695,-0.01821 0.02539,-0.02734 0.03331,1.065814 -0.207402,2.142591 -0.736328,3.117188 h 1.105468 c 0.596767,-1.327925 0.76278,-2.790229 0.513672,-4.1875 C 12.400692,8.9644709 12.784213,8.0434872 12.925781,7.1484375 13.578436,7.3703747 14.273091,7.5 15,7.5 v -1 C 14.283954,6.5 13.606636,6.3520477 12.980469,6.1035156 12.937057,5.3942048 12.718552,4.7607409 12.341797,4.2519531 l -0.585938,-0.59375 C 11.24558,3.2788527 10.609301,3.0589618 9.8964844,3.015625 9.6488005,2.3903831 9.5,1.7147552 9.5,1 Z"
       style="opacity:1;fill:#2c5aa0;fill-opacity:1;stroke:none;stroke-width:0.70244753;stroke-miterlimit:4;stroke-dasharray:none;stroke-opacity:1" />
    <path
       id="path967"
       d="M 12 1 L 12 1.765625 A 1.7650453 1.1766968 45 0 0 11.501953 2.0019531 A 1.7650453 1.1766968 45 0 0 11.917969 4.0820312 A 1.7650453 1.1766968 45 0 0 13.998047 4.4980469 A 1.7650453 1.1766968 45 0 0 14.236328 4 L 15 4 L 15 3 L 14.017578 3 A 1.7650453 1.1766968 45 0 0 13.582031 2.4179688 A 1.7650453 1.1766968 45 0 0 13 1.9804688 L 13 1 L 12 1 z "
       style="opacity:1;fill:#008000;fill-opacity:1;stroke:none;stroke-width:1.17669678;stroke-miterlimit:4;stroke-dasharray:none;stroke-opacity:1" />
  </g>
</svg>
