<?xml version="1.0" encoding="UTF-8" standalone="no"?>
<svg
   xmlns:dc="http://purl.org/dc/elements/1.1/"
   xmlns:cc="http://creativecommons.org/ns#"
   xmlns:rdf="http://www.w3.org/1999/02/22-rdf-syntax-ns#"
   xmlns:svg="http://www.w3.org/2000/svg"
   xmlns="http://www.w3.org/2000/svg"
   width="16px"
   height="16px"
   viewBox="0 0 16 16"
   version="1.1"
   id="SVGRoot">
  <defs
     id="defs5287" />
  <metadata
     id="metadata5290">
    <rdf:RDF>
      <cc:Work
         rdf:about="">
        <dc:format>image/svg+xml</dc:format>
        <dc:type
           rdf:resource="http://purl.org/dc/dcmitype/StillImage" />
        <dc:title></dc:title>
      </cc:Work>
    </rdf:RDF>
  </metadata>
  <path
     id="path821"
     d="M 8,0.5 V 1 C 8,1.6225344 8.1442403,2.1999658 8.2988281,2.7695312 7.5496907,2.9543138 6.8038418,3.2312501 6.1054688,3.6855469 4.6145984,3.4544422 3.0323973,3.6971892 1.7988281,4.2402344 L 1.5,4.3710938 V 6.6445312 L 2.2382812,6.2441406 C 2.763075,5.959273 3.349207,5.953005 3.9179688,5.8476562 3.3011404,6.7129784 2.8461928,7.6312805 2.6621094,8.5917969 1.9949096,8.6457948 1.3294394,8.7717221 0.74804688,9.109375 L 0.5,9.2539062 v 2.6386718 l 0.8339844,-0.751953 c 0.4192843,-0.377137 0.9675941,-0.55205 1.5273437,-0.587891 l 2.5859378,2.584027 C 5.4125719,13.697629 5.238716,14.24567 4.8613284,14.666058 L 4.1113281,15.5 H 6.7460938 L 6.890625,15.251953 c 0.3370096,-0.580289 0.4631197,-1.244297 0.5175781,-1.910156 0.9612293,-0.184494 1.8803545,-0.640596 2.7460939,-1.257813 -0.105461,0.568053 -0.111919,1.153396 -0.3964845,1.677735 L 9.3574219,14.5 h 2.2695311 l 0.132813,-0.294922 C 12.375196,12.835624 12.537846,11.334986 12.3125,9.890625 12.765047,9.1918929 13.042004,8.4478922 13.224609,7.6992188 13.796089,7.8548836 14.375198,8 15,8 h 0.5 V 6 H 15 C 14.423044,6 13.88292,5.8622708 13.363281,5.6777344 13.3364,5.5113171 13.268215,5.3668283 13.222656,5.2089844 13.643639,5.2348468 14.047442,5.1543016 14.351562,4.8515625 14.44577,4.756869 14.46273,4.6173149 14.523438,4.5 H 15.5 v -2 H 14.259766 C 14.156618,2.3514314 14.065147,2.1945028 13.935547,2.0644531 13.805288,1.9340537 13.648998,1.8420941 13.5,1.7382812 V 0.5 h -2 v 0.9785156 c -0.1166,0.060059 -0.255195,0.074814 -0.349609,0.1679688 l -0.002,0.00195 C 10.847495,1.9509288 10.766729,2.3528607 10.791016,2.7714844 10.633276,2.7261201 10.48855,2.6595597 10.322266,2.6328125 10.138066,2.1137063 10,1.5751981 10,1 V 0.5 Z"
     style="color:#000000;font-style:normal;font-variant:normal;font-weight:normal;font-stretch:normal;font-size:medium;line-height:normal;font-family:sans-serif;font-variant-ligatures:normal;font-variant-position:normal;font-variant-caps:normal;font-variant-numeric:normal;font-variant-alternates:normal;font-feature-settings:normal;text-indent:0;text-align:start;text-decoration:none;text-decoration-line:none;text-decoration-style:solid;text-decoration-color:#000000;letter-spacing:normal;word-spacing:normal;text-transform:none;writing-mode:lr-tb;direction:ltr;text-orientation:mixed;dominant-baseline:auto;baseline-shift:baseline;text-anchor:start;white-space:normal;shape-padding:0;clip-rule:nonzero;display:inline;overflow:visible;visibility:visible;opacity:1;isolation:auto;mix-blend-mode:normal;color-interpolation:sRGB;color-interpolation-filters:linearRGB;solid-color:#000000;solid-opacity:1;vector-effect:none;fill:#ffffff;fill-opacity:1;fill-rule:nonzero;stroke:none;stroke-width:1;stroke-linecap:butt;stroke-linejoin:miter;stroke-miterlimit:4;stroke-dasharray:none;stroke-dashoffset:0;stroke-opacity:1;color-rendering:auto;image-rendering:auto;shape-rendering:auto;text-rendering:auto;enable-background:accumulate" />
  <g
     id="g819">
    <path
       style="opacity:1;fill:#2c5aa0;fill-opacity:1;stroke:none;stroke-width:0.70244753;stroke-miterlimit:4;stroke-dasharray:none;stroke-opacity:1"
       d="M 8.5,1 C 8.5,1.7247441 8.6289321,2.4173758 8.8496094,3.0683594 7.9558048,3.2126832 7.0370041,3.5974858 6.1914062,4.1816406 4.7716325,3.9227677 3.185712,4.1752882 2,4.6972656 V 5.8046875 C 2.9745225,5.2756988 4.0513397,5.0354513 5.1171875,5.0683594 5.1080541,5.0768011 5.0989394,5.0852647 5.0898438,5.09375 3.9613247,6.2260577 3.2205798,7.6417507 3.0449219,9.0019531 3.0299517,9.0012179 3.0149775,9.0005669 3,9 2.297388,9.0015552 1.6075807,9.1881535 1,9.5410156 V 10.769531 C 1.5491933,10.275544 2.2613297,10.001539 3,10 c 0.00586,-1.72e-5 0.011719,-1.72e-5 0.017578,0 v 0.002 L 4.2128906,11.197266 9,7 4.8027344,11.787109 6,12.982422 c 1.72e-5,0.0059 1.72e-5,0.01172 0,0.01758 -0.001,0.738413 -0.2743002,1.450517 -0.7675781,2 H 6.4589844 C 6.8118465,14.392417 6.9984448,13.702612 7,13 6.999426,12.98567 6.99877,12.97135 6.99805,12.95703 c 1.3612806,-0.176463 2.7777334,-0.917943 3.910156,-2.046875 0.0085,-0.0091 0.01695,-0.01821 0.02539,-0.02734 0.03331,1.065814 -0.207402,2.142591 -0.736328,3.117188 h 1.105468 c 0.596767,-1.327925 0.76278,-2.790229 0.513672,-4.1875 C 12.400692,8.9644709 12.784213,8.0434872 12.925781,7.1484375 13.578436,7.3703747 14.273091,7.5 15,7.5 v -1 C 14.283954,6.5 13.606636,6.3520477 12.980469,6.1035156 12.937057,5.3942048 12.718552,4.7607409 12.341797,4.2519531 l -0.585938,-0.59375 C 11.24558,3.2788527 10.609301,3.0589618 9.8964844,3.015625 9.6488005,2.3903831 9.5,1.7147552 9.5,1 Z"
       id="path962" />
    <path
       style="opacity:1;fill:#008000;fill-opacity:1;stroke:none;stroke-width:1.17669678;stroke-miterlimit:4;stroke-dasharray:none;stroke-opacity:1"
       d="M 12,1 V 1.765625 A 1.7650453,1.1766968 45 0 0 11.501953,2.0019531 1.7650453,1.1766968 45 0 0 11.917969,4.0820312 1.7650453,1.1766968 45 0 0 13.998047,4.4980469 1.7650453,1.1766968 45 0 0 14.236328,4 H 15 V 3 H 14.017578 A 1.7650453,1.1766968 45 0 0 13.582031,2.4179688 1.7650453,1.1766968 45 0 0 13,1.9804688 V 1 Z"
       id="path967" />
  </g>
</svg>
