<?xml version="1.0" encoding="UTF-8" standalone="no"?>
<svg
   xmlns:dc="http://purl.org/dc/elements/1.1/"
   xmlns:cc="http://creativecommons.org/ns#"
   xmlns:rdf="http://www.w3.org/1999/02/22-rdf-syntax-ns#"
   xmlns:svg="http://www.w3.org/2000/svg"
   xmlns="http://www.w3.org/2000/svg"
   width="16px"
   height="16px"
   viewBox="0 0 16 16"
   version="1.1"
   id="SVGRoot">
  <defs
     id="defs5287" />
  <metadata
     id="metadata5290">
    <rdf:RDF>
      <cc:Work
         rdf:about="">
        <dc:format>image/svg+xml</dc:format>
        <dc:type
           rdf:resource="http://purl.org/dc/dcmitype/StillImage" />
        <dc:title></dc:title>
      </cc:Work>
    </rdf:RDF>
  </metadata>
  <path
     style="fill:#ffffff;fill-opacity:1;stroke:none;stroke-width:1.04581916;stroke-miterlimit:4;stroke-dasharray:none;stroke-opacity:1"
     d="M 10,0 A 6,6 0 0 0 5.6054688,1.9257812 L 3.6152344,0.36914062 3.3066406,0.76171875 C 2.1360722,2.2566877 1.5005523,4.1012735 1.5,6 c 0,4.688498 3.8115019,8.5 8.5,8.5 1.915968,-0.0028 3.775267,-0.653827 5.275391,-1.845703 l 0.390625,-0.310547 -1.5625,-1.972656 A 6,6 0 0 0 16,6 6,6 0 0 0 10,0 Z"
     id="path833" />
  <g
     id="layer1">
    <path
       style="opacity:1;fill:#d4aa00;fill-opacity:1;stroke:none;stroke-width:1;stroke-miterlimit:4;stroke-dasharray:none;stroke-opacity:1"
       d="M 3.7011719 1.0703125 A 8 8 0 0 0 2 6 A 8 8 0 0 0 10 14 A 8 8 0 0 0 14.964844 12.263672 L 13.726562 10.701172 A 6 6 0 0 1 10 12 A 6 6 0 0 1 4 6 A 6 6 0 0 1 5.2792969 2.3066406 L 3.7011719 1.0703125 z "
       id="path5895" />
    <path
       style="opacity:1;fill:#2c5aa0;fill-opacity:1;stroke:none;stroke-width:1.14285719;stroke-miterlimit:4;stroke-dasharray:none;stroke-opacity:1"
       d="M 9.0000781,1 V 2.1308594 A 4,4 0 0 0 7.1485156,3.1992188 L 6.17,2.6347656 5.17,4.3652344 6.1485156,4.9296875 A 4,4 0 0 0 6.0000781,6 4,4 0 0 0 6.1465625,7.0703125 L 5.17,7.6347656 6.17,9.365234 7.1465625,8.800781 A 4,4 0 0 0 9.0000781,9.867188 V 11 H 11.000078 V 9.869141 a 4,4 0 0 0 1.851562,-1.06836 l 0.978516,0.564453 1,-1.7304684 L 13.85164,7.0703125 A 4,4 0 0 0 14.000078,6 4,4 0 0 0 13.853594,4.9296875 l 0.976562,-0.5644531 -1,-1.7304688 -0.976562,0.5644532 A 4,4 0 0 0 11.000078,2.1328125 V 1 Z m 0.9999999,4 a 1,1 0 0 1 1,1 1,1 0 0 1 -1,1 A 1,1 0 0 1 9.0000781,6 1,1 0 0 1 10.000078,5 Z"
       id="path5852" />
    <path
       id="rect827"
       d="M 3.0588236,8.2352937 V 11.058823 H 0.23529412 v 1.882353 H 3.0588236 v 2.82353 h 1.8823528 v -2.82353 H 7.7647058 V 11.058823 H 4.9411764 V 8.2352937 Z"
       style="fill:#0080ff;fill-opacity:1;stroke:#000000;stroke-width:0.5;stroke-miterlimit:4;stroke-dasharray:none;stroke-opacity:1" />
  </g>
</svg>
