<?xml version="1.0" encoding="UTF-8" standalone="no"?>
<svg
   xmlns:dc="http://purl.org/dc/elements/1.1/"
   xmlns:cc="http://creativecommons.org/ns#"
   xmlns:rdf="http://www.w3.org/1999/02/22-rdf-syntax-ns#"
   xmlns:svg="http://www.w3.org/2000/svg"
   xmlns="http://www.w3.org/2000/svg"
   id="svg913"
   version="1.1"
   viewBox="0 0 4.2333333 4.2333333"
   height="16"
   width="16">
  <defs
     id="defs907" />
  <metadata
     id="metadata910">
    <rdf:RDF>
      <cc:Work
         rdf:about="">
        <dc:format>image/svg+xml</dc:format>
        <dc:type
           rdf:resource="http://purl.org/dc/dcmitype/StillImage" />
        <dc:title></dc:title>
      </cc:Work>
    </rdf:RDF>
  </metadata>
  <g
     transform="translate(0,-292.76667)"
     id="layer1">
    <g
       transform="translate(92.278163,-80.247377)"
       id="g5181">
      <path
         style="fill:#ffd42a;fill-opacity:1;stroke:none;stroke-width:0.13229166;stroke-linecap:butt;stroke-linejoin:miter;stroke-miterlimit:4;stroke-dasharray:none;stroke-opacity:1"
         d="m -90.161496,376.45363 v -1.32292 l 0.79375,-1.5875 c 0,0 0.264584,-0.52916 0.79375,-0.26458 0.529167,0.26458 0.264584,0.79375 0.264584,0.79375 l -0.79375,1.5875 z"
         id="path864" />
      <path
         style="fill:#ff80b2;fill-opacity:1;stroke:none;stroke-width:0.13229166;stroke-linecap:butt;stroke-linejoin:miter;stroke-miterlimit:4;stroke-dasharray:none;stroke-opacity:1"
         d="m -88.921261,373.20835 c -0.297656,0.0372 -0.446485,0.33486 -0.446485,0.33486 l 1.058334,0.52917 c 0,0 0.264583,-0.52917 -0.264584,-0.79375 -0.132291,-0.0661 -0.248046,-0.0827 -0.347265,-0.0703 z"
         id="path886" />
      <path
         style="fill:#e9ddaf;fill-opacity:1;stroke:none;stroke-width:0.26458332px;stroke-linecap:butt;stroke-linejoin:miter;stroke-opacity:1"
         d="m -90.161496,375.13071 1.058334,0.52917 -1.058334,0.79375 z"
         id="path874" />
      <path
         style="fill:#000000;fill-opacity:1;stroke:none;stroke-width:0.26458332px;stroke-linecap:butt;stroke-linejoin:miter;stroke-opacity:1"
         d="m -90.161496,376.45363 0.598929,-0.45306 -0.598929,-0.34069 z"
         id="path870" />
      <path
         id="path872"
         d="m -90.161496,376.45363 v -1.32292 l 0.79375,-1.5875 c 0,0 0.264584,-0.52916 0.79375,-0.26458 0.529167,0.26458 0.264584,0.79375 0.264584,0.79375 l -0.79375,1.5875 z"
         style="fill:none;fill-opacity:1;stroke:#000000;stroke-width:0.13229166;stroke-linecap:butt;stroke-linejoin:miter;stroke-miterlimit:4;stroke-dasharray:none;stroke-opacity:1" />
      <path
         style="fill:none;stroke:#000000;stroke-width:0.13229166;stroke-linecap:butt;stroke-linejoin:miter;stroke-miterlimit:4;stroke-dasharray:none;stroke-opacity:1"
         d="m -89.367746,373.54321 1.058334,0.52917"
         id="path891" />
    </g>
  </g>
</svg>
