<?xml version="1.0" encoding="UTF-8" standalone="no"?>
<svg
   xmlns:dc="http://purl.org/dc/elements/1.1/"
   xmlns:cc="http://creativecommons.org/ns#"
   xmlns:rdf="http://www.w3.org/1999/02/22-rdf-syntax-ns#"
   xmlns:svg="http://www.w3.org/2000/svg"
   xmlns="http://www.w3.org/2000/svg"
   version="1.1"
   id="svg2"
   width="16"
   height="16">
  <metadata
     id="metadata8">
    <rdf:RDF>
      <cc:Work
         rdf:about="">
        <dc:format>image/svg+xml</dc:format>
        <dc:type
           rdf:resource="http://purl.org/dc/dcmitype/StillImage" />
        <dc:title></dc:title>
      </cc:Work>
    </rdf:RDF>
  </metadata>
  <defs
     id="defs6" />
  <rect
     style="fill:#ffffff;fill-opacity:1;stroke:none;stroke-width:0.19106248;stroke-miterlimit:4;stroke-dasharray:none;stroke-opacity:1"
     id="rect815"
     width="14"
     height="5"
     x="1"
     y="10" />
  <path
     id="path829"
     d="M 5,3 H 4.5 C 2,3 2,3 2,5.5 V 11 H 4 V 5.5 C 4,5 4,5 4.5,5 H 5 10.5 C 11,5 11,5 11,5.5 V 9 H 9 l 3,3 3,-3 H 13 V 5.5 C 13,3 13,3 10.5,3 Z"
     style="opacity:1;vector-effect:none;fill:#d4aa00;fill-opacity:1;stroke:#000000;stroke-width:1;stroke-linecap:butt;stroke-linejoin:miter;stroke-miterlimit:4;stroke-dasharray:none;stroke-dashoffset:0;stroke-opacity:1" />
  <path
     style="opacity:1;vector-effect:none;fill:#d4aa00;fill-opacity:1;stroke:none;stroke-width:1;stroke-linecap:butt;stroke-linejoin:miter;stroke-miterlimit:4;stroke-dasharray:none;stroke-dashoffset:0;stroke-opacity:1"
     d="M 5,3 H 4.5 C 2,3 2,3 2,5.5 V 11 H 4 V 5.5 C 4,5 4,5 4.5,5 H 5 10.5 C 11,5 11,5 11,5.5 V 9 H 9 l 3,3 3,-3 H 13 V 5.5 C 13,3 13,3 10.5,3 Z"
     id="rect4163" />
  <g
     id="g826"
     transform="rotate(45,7.5,12.5)">
    <rect
       transform="rotate(90)"
       y="-10.5"
       x="11.5"
       height="6"
       width="2"
       id="rect820"
       style="fill:#ff0000;fill-opacity:1;stroke:none;stroke-width:2.32378983;stroke-miterlimit:4;stroke-dasharray:none;stroke-opacity:1" />
    <rect
       transform="scale(-1)"
       style="fill:#ff0000;fill-opacity:1;stroke:none;stroke-width:2.32378983;stroke-miterlimit:4;stroke-dasharray:none;stroke-opacity:1"
       id="rect822"
       width="2"
       height="6"
       x="-8.5"
       y="-15.5" />
  </g>
</svg>
