<?xml version="1.0" encoding="UTF-8" standalone="no"?>
<svg
   xmlns:dc="http://purl.org/dc/elements/1.1/"
   xmlns:cc="http://creativecommons.org/ns#"
   xmlns:rdf="http://www.w3.org/1999/02/22-rdf-syntax-ns#"
   xmlns:svg="http://www.w3.org/2000/svg"
   xmlns="http://www.w3.org/2000/svg"
   height="16"
   width="16"
   id="svg2"
   version="1.1">
  <metadata
     id="metadata8">
    <rdf:RDF>
      <cc:Work
         rdf:about="">
        <dc:format>image/svg+xml</dc:format>
        <dc:type
           rdf:resource="http://purl.org/dc/dcmitype/StillImage" />
        <dc:title></dc:title>
      </cc:Work>
    </rdf:RDF>
  </metadata>
  <defs
     id="defs6" />
  <rect
     y="10"
     x="1"
     height="5"
     width="14"
     id="rect815"
     style="fill:#ffffff;fill-opacity:1;stroke:none;stroke-width:0.19106248;stroke-miterlimit:4;stroke-dasharray:none;stroke-opacity:1" />
  <path
     style="opacity:1;vector-effect:none;fill:#d4aa00;fill-opacity:1;stroke:#000000;stroke-width:1;stroke-linecap:butt;stroke-linejoin:miter;stroke-miterlimit:4;stroke-dasharray:none;stroke-dashoffset:0;stroke-opacity:1"
     d="M 5,3 H 4.5 C 2,3 2,3 2,5.5 V 11 H 4 V 5.5 C 4,5 4,5 4.5,5 H 5 10.5 C 11,5 11,5 11,5.5 V 9 H 9 l 3,3 3,-3 H 13 V 5.5 C 13,3 13,3 10.5,3 Z"
     id="path829" />
  <rect
     y="11"
     x="6"
     height="3"
     width="3"
     id="rect819"
     style="fill:#0166a9;fill-opacity:1;stroke:none;stroke-width:2.25;stroke-miterlimit:4;stroke-dasharray:none;stroke-opacity:1" />
  <path
     id="rect4163"
     d="M 5,3 H 4.5 C 2,3 2,3 2,5.5 V 11 H 4 V 5.5 C 4,5 4,5 4.5,5 H 5 10.5 C 11,5 11,5 11,5.5 V 9 H 9 l 3,3 3,-3 H 13 V 5.5 C 13,3 13,3 10.5,3 Z"
     style="opacity:1;vector-effect:none;fill:#d4aa00;fill-opacity:1;stroke:none;stroke-width:1;stroke-linecap:butt;stroke-linejoin:miter;stroke-miterlimit:4;stroke-dasharray:none;stroke-dashoffset:0;stroke-opacity:1" />
</svg>
