<?xml version="1.0" encoding="UTF-8" standalone="no"?>
<svg
   xmlns:dc="http://purl.org/dc/elements/1.1/"
   xmlns:cc="http://creativecommons.org/ns#"
   xmlns:rdf="http://www.w3.org/1999/02/22-rdf-syntax-ns#"
   xmlns:svg="http://www.w3.org/2000/svg"
   xmlns="http://www.w3.org/2000/svg"
   version="1.1"
   id="svg2"
   width="16"
   height="16">
  <metadata
     id="metadata8">
    <rdf:RDF>
      <cc:Work
         rdf:about="">
        <dc:format>image/svg+xml</dc:format>
        <dc:type
           rdf:resource="http://purl.org/dc/dcmitype/StillImage" />
        <dc:title></dc:title>
      </cc:Work>
    </rdf:RDF>
  </metadata>
  <defs
     id="defs6" />
  <path
     style="opacity:1;vector-effect:none;fill:#d4aa00;fill-opacity:1;stroke:#000000;stroke-width:1;stroke-linecap:butt;stroke-linejoin:miter;stroke-miterlimit:4;stroke-dasharray:none;stroke-dashoffset:0;stroke-opacity:1"
     d="M 6,2 H 5.5 C 3,2 3,2 3,4.5 V 9 H 5 V 4.5 C 5,4 5,4 5.5,4 H 6 11.5 C 12,4 12,4 12,4.5 V 5 10.5 C 12,11 12,11 11.5,11 H 11 9.6601562 8 V 9 l -3,3 3,3 V 13 H 9.6601562 11 11.5 C 14,13 14,13 14,10.5 V 5 4.5 C 14,2 14,2 11.5,2 Z"
     id="path839" />
  <path
     id="rect4163"
     d="M 6,2 H 5.5 C 3,2 3,2 3,4.5 V 9 H 5 V 4.5 C 5,4 5,4 5.5,4 H 6 11.5 C 12,4 12,4 12,4.5 V 5 10.5 C 12,11 12,11 11.5,11 H 11 9.6601562 8 V 9 l -3,3 3,3 V 13 H 9.6601562 11 11.5 C 14,13 14,13 14,10.5 V 5 4.5 C 14,2 14,2 11.5,2 Z"
     style="opacity:1;vector-effect:none;fill:#d4aa00;fill-opacity:1;stroke:none;stroke-width:1;stroke-linecap:butt;stroke-linejoin:miter;stroke-miterlimit:4;stroke-dasharray:none;stroke-dashoffset:0;stroke-opacity:1" />
</svg>
