<?xml version="1.0" encoding="UTF-8" standalone="no"?>
<svg
   xmlns:dc="http://purl.org/dc/elements/1.1/"
   xmlns:cc="http://creativecommons.org/ns#"
   xmlns:rdf="http://www.w3.org/1999/02/22-rdf-syntax-ns#"
   xmlns:svg="http://www.w3.org/2000/svg"
   xmlns="http://www.w3.org/2000/svg"
   width="15.999999"
   height="15.999999"
   viewBox="0 0 4.2333331 4.2333331"
   version="1.1"
   id="svg8">
  <defs
     id="defs2" />
  <metadata
     id="metadata5">
    <rdf:RDF>
      <cc:Work
         rdf:about="">
        <dc:format>image/svg+xml</dc:format>
        <dc:type
           rdf:resource="http://purl.org/dc/dcmitype/StillImage" />
        <dc:title></dc:title>
      </cc:Work>
    </rdf:RDF>
  </metadata>
  <g
     transform="translate(92.278163,-373.01405)"
     id="g5181">
    <path
       style="fill:#ffd42a;fill-opacity:1;stroke:none;stroke-width:0.13229166;stroke-linecap:butt;stroke-linejoin:miter;stroke-miterlimit:4;stroke-dasharray:none;stroke-opacity:1"
       d="m -90.161496,376.45363 v -1.32292 l 0.79375,-1.5875 c 0,0 0.264584,-0.52916 0.79375,-0.26458 0.529167,0.26458 0.264584,0.79375 0.264584,0.79375 l -0.79375,1.5875 z"
       id="path864" />
    <path
       style="fill:#ff80b2;fill-opacity:1;stroke:none;stroke-width:0.13229166;stroke-linecap:butt;stroke-linejoin:miter;stroke-miterlimit:4;stroke-dasharray:none;stroke-opacity:1"
       d="m -88.921261,373.20835 c -0.297656,0.0372 -0.446485,0.33486 -0.446485,0.33486 l 1.058334,0.52917 c 0,0 0.264583,-0.52917 -0.264584,-0.79375 -0.132291,-0.0661 -0.248046,-0.0827 -0.347265,-0.0703 z"
       id="path886" />
    <path
       style="fill:#e9ddaf;fill-opacity:1;stroke:none;stroke-width:0.26458332px;stroke-linecap:butt;stroke-linejoin:miter;stroke-opacity:1"
       d="m -90.161496,375.13071 1.058334,0.52917 -1.058334,0.79375 z"
       id="path874" />
    <path
       style="fill:#000000;fill-opacity:1;stroke:none;stroke-width:0.26458332px;stroke-linecap:butt;stroke-linejoin:miter;stroke-opacity:1"
       d="m -90.161496,376.45363 0.598929,-0.45306 -0.598929,-0.34069 z"
       id="path870" />
    <path
       id="path872"
       d="m -90.161496,376.45363 v -1.32292 l 0.79375,-1.5875 c 0,0 0.264584,-0.52916 0.79375,-0.26458 0.529167,0.26458 0.264584,0.79375 0.264584,0.79375 l -0.79375,1.5875 z"
       style="fill:none;fill-opacity:1;stroke:#000000;stroke-width:0.13229166;stroke-linecap:butt;stroke-linejoin:miter;stroke-miterlimit:4;stroke-dasharray:none;stroke-opacity:1" />
    <path
       style="fill:none;stroke:#000000;stroke-width:0.13229166;stroke-linecap:butt;stroke-linejoin:miter;stroke-miterlimit:4;stroke-dasharray:none;stroke-opacity:1"
       d="m -89.367746,373.54321 1.058334,0.52917"
       id="path891" />
  </g>
  <path
     id="path844"
     d="m 2.1171834,0.13125814 c -1.091864,0 -1.98592527,0.89406126 -1.98592526,1.98592526 0,1.0918642 0.89424006,1.9838582 1.98592526,1.9838582 1.0916853,0 1.9838582,-0.8921729 1.9838582,-1.9838582 0,-1.0916852 -0.891994,-1.98592527 -1.9838582,-1.98592526 z m 0,0.79375 c 0.6627608,-3e-8 1.1901082,0.52916626 1.1901082,1.19217526 0,0.1799707 -0.074699,0.3322699 -0.1452107,0.4842082 L 1.6324585,1.0707357 C 1.7846572,0.99991123 1.9373132,0.92500814 2.1171834,0.92500814 Z M 1.0707357,1.6324585 2.6013916,3.1620809 c -0.1519383,0.070511 -0.3042375,0.1452107 -0.4842082,0.1452107 -0.663009,0 -1.19217535,-0.5273474 -1.19217532,-1.1901082 0,-0.1798702 0.0749031,-0.3325262 0.14572762,-0.4847249 z"
     style="color:#000000;font-style:normal;font-variant:normal;font-weight:normal;font-stretch:normal;font-size:medium;line-height:normal;font-family:sans-serif;font-variant-ligatures:normal;font-variant-position:normal;font-variant-caps:normal;font-variant-numeric:normal;font-variant-alternates:normal;font-feature-settings:normal;text-indent:0;text-align:start;text-decoration:none;text-decoration-line:none;text-decoration-style:solid;text-decoration-color:#000000;letter-spacing:normal;word-spacing:normal;text-transform:none;writing-mode:lr-tb;direction:ltr;text-orientation:mixed;dominant-baseline:auto;baseline-shift:baseline;text-anchor:start;white-space:normal;shape-padding:0;clip-rule:nonzero;display:inline;overflow:visible;visibility:visible;opacity:1;isolation:auto;mix-blend-mode:normal;color-interpolation:sRGB;color-interpolation-filters:linearRGB;solid-color:#000000;solid-opacity:1;vector-effect:none;fill:#ffffff;fill-opacity:1;fill-rule:nonzero;stroke:none;stroke-width:0.26458332;stroke-linecap:butt;stroke-linejoin:miter;stroke-miterlimit:4;stroke-dasharray:none;stroke-dashoffset:0;stroke-opacity:1;color-rendering:auto;image-rendering:auto;shape-rendering:auto;text-rendering:auto;enable-background:accumulate" />
  <path
     id="path4643"
     transform="scale(0.26458333)"
     d="M 8.0019531 0.99609375 C 4.1478045 0.99609375 0.99609371 4.1478045 0.99609375 8.0019531 C 0.99609375 11.856102 4.1478045 15 8.0019531 15 C 11.856102 15 15 11.856102 15 8.0019531 C 15 4.1478045 11.856102 0.99609371 8.0019531 0.99609375 z M 8.0019531 2.9960938 C 10.775222 2.9960938 13 5.2286847 13 8.0019531 C 13 9.0253084 12.69344 9.9720494 12.171875 10.761719 L 5.2421875 3.8261719 C 6.0327076 3.3041855 6.9795 2.9960938 8.0019531 2.9960938 z M 3.8261719 5.2421875 L 10.761719 12.171875 C 9.9720494 12.69344 9.0253084 13 8.0019531 13 C 5.2286847 13 2.9960938 10.775222 2.9960938 8.0019531 C 2.9960938 6.9795 3.3041855 6.0327076 3.8261719 5.2421875 z "
     style="color:#000000;font-style:normal;font-variant:normal;font-weight:normal;font-stretch:normal;font-size:medium;line-height:normal;font-family:sans-serif;font-variant-ligatures:normal;font-variant-position:normal;font-variant-caps:normal;font-variant-numeric:normal;font-variant-alternates:normal;font-feature-settings:normal;text-indent:0;text-align:start;text-decoration:none;text-decoration-line:none;text-decoration-style:solid;text-decoration-color:#000000;letter-spacing:normal;word-spacing:normal;text-transform:none;writing-mode:lr-tb;direction:ltr;text-orientation:mixed;dominant-baseline:auto;baseline-shift:baseline;text-anchor:start;white-space:normal;shape-padding:0;clip-rule:nonzero;display:inline;overflow:visible;visibility:visible;opacity:1;isolation:auto;mix-blend-mode:normal;color-interpolation:sRGB;color-interpolation-filters:linearRGB;solid-color:#000000;solid-opacity:1;vector-effect:none;fill:#ff0000;fill-opacity:1;fill-rule:nonzero;stroke:none;stroke-width:2;stroke-linecap:butt;stroke-linejoin:miter;stroke-miterlimit:4;stroke-dasharray:none;stroke-dashoffset:0;stroke-opacity:1;color-rendering:auto;image-rendering:auto;shape-rendering:auto;text-rendering:auto;enable-background:accumulate" />
</svg>
